<svg width="1440" height="612" viewBox="0 0 1440 612" fill="none" xmlns="http://www.w3.org/2000/svg">
<g filter="url(#filter0_d_1_29)">
<path d="M81.3804 231.889L292.5 21.2132L503.176 232.333C536.335 265.562 536.279 319.381 503.049 352.541L291.93 563.217L81.254 352.097C48.0943 318.868 48.151 265.049 81.3804 231.889Z" stroke="#85152D" stroke-width="30" shape-rendering="crispEdges"/>
</g>
<g filter="url(#filter1_d_1_29)">
<path d="M156.511 307.167L291.958 172.005L427.12 307.452C460.28 340.681 460.223 394.5 426.994 427.66L291.547 562.822L156.385 427.375C123.225 394.146 123.282 340.327 156.511 307.167Z" stroke="#50278F" stroke-width="30" shape-rendering="crispEdges"/>
</g>
<g filter="url(#filter2_d_1_29)">
<path d="M192.673 413.84L292.392 314.332L391.9 414.05C405.554 427.733 405.531 449.893 391.848 463.547L292.13 563.056L192.621 463.338C178.967 449.655 178.991 427.494 192.673 413.84Z" stroke="#0C787B" stroke-width="30" shape-rendering="crispEdges"/>
</g>
<path d="M583.5 288V113H659C678.5 113 693.583 116.917 704.25 124.75C715.083 132.583 720.5 143.667 720.5 158C720.5 167.5 718.25 175.5 713.75 182C709.417 188.5 703.417 193.417 695.75 196.75C688.25 200.083 680 201.75 671 201.75L675.25 195.75C686.417 195.75 696 197.5 704 201C712.167 204.333 718.5 209.417 723 216.25C727.5 222.917 729.75 231.25 729.75 241.25C729.75 256.083 724.25 267.583 713.25 275.75C702.417 283.917 686 288 664 288H583.5ZM602 272.75H663.75C679.083 272.75 690.833 270.167 699 265C707.167 259.667 711.25 251.25 711.25 239.75C711.25 228.417 707.167 220.167 699 215C690.833 209.667 679.083 207 663.75 207H600V191.75H657.75C671.75 191.75 682.583 189.083 690.25 183.75C698.083 178.417 702 170.5 702 160C702 149.333 698.083 141.417 690.25 136.25C682.583 130.917 671.75 128.25 657.75 128.25H602V272.75ZM823.977 289.25C810.31 289.25 798.31 286.417 787.977 280.75C777.643 274.917 769.56 267 763.727 257C757.893 246.833 754.977 235.25 754.977 222.25C754.977 209.25 757.727 197.75 763.227 187.75C768.893 177.75 776.56 169.917 786.227 164.25C796.06 158.417 807.06 155.5 819.227 155.5C831.56 155.5 842.477 158.333 851.977 164C861.643 169.5 869.227 177.333 874.727 187.5C880.227 197.5 882.977 209.083 882.977 222.25C882.977 223.083 882.893 224 882.727 225C882.727 225.833 882.727 226.75 882.727 227.75H768.477V214.5H873.227L866.227 219.75C866.227 210.25 864.143 201.833 859.977 194.5C855.977 187 850.477 181.167 843.477 177C836.477 172.833 828.393 170.75 819.227 170.75C810.227 170.75 802.143 172.833 794.977 177C787.81 181.167 782.227 187 778.227 194.5C774.227 202 772.227 210.583 772.227 220.25V223C772.227 233 774.393 241.833 778.727 249.5C783.227 257 789.393 262.917 797.227 267.25C805.227 271.417 814.31 273.5 824.477 273.5C832.477 273.5 839.893 272.083 846.727 269.25C853.727 266.417 859.727 262.083 864.727 256.25L874.727 267.75C868.893 274.75 861.56 280.083 852.727 283.75C844.06 287.417 834.477 289.25 823.977 289.25ZM919.105 288V102.5H936.855V288H919.105ZM1040.49 289.25C1029.33 289.25 1019.58 287.167 1011.24 283C1002.91 278.833 996.411 272.583 991.744 264.25C987.244 255.917 984.994 245.5 984.994 233V156.75H1002.74V231C1002.74 245 1006.16 255.583 1012.99 262.75C1019.99 269.75 1029.74 273.25 1042.24 273.25C1051.41 273.25 1059.33 271.417 1065.99 267.75C1072.83 263.917 1077.99 258.417 1081.49 251.25C1085.16 244.083 1086.99 235.5 1086.99 225.5V156.75H1104.74V288H1087.74V252L1090.49 258.5C1086.33 268.167 1079.83 275.75 1070.99 281.25C1062.33 286.583 1052.16 289.25 1040.49 289.25ZM1134.21 288L1189.71 216L1189.46 224.75L1136.71 156.75H1156.71L1199.96 213L1192.46 212.75L1235.71 156.75H1255.21L1201.96 225.5L1202.21 216L1258.21 288H1237.96L1192.21 228L1199.21 229L1154.21 288H1134.21ZM1338.87 289.25C1325.2 289.25 1313.2 286.417 1302.87 280.75C1292.54 274.917 1284.45 267 1278.62 257C1272.79 246.833 1269.87 235.25 1269.87 222.25C1269.87 209.25 1272.62 197.75 1278.12 187.75C1283.79 177.75 1291.45 169.917 1301.12 164.25C1310.95 158.417 1321.95 155.5 1334.12 155.5C1346.45 155.5 1357.37 158.333 1366.87 164C1376.54 169.5 1384.12 177.333 1389.62 187.5C1395.12 197.5 1397.87 209.083 1397.87 222.25C1397.87 223.083 1397.79 224 1397.62 225C1397.62 225.833 1397.62 226.75 1397.62 227.75H1283.37V214.5H1388.12L1381.12 219.75C1381.12 210.25 1379.04 201.833 1374.87 194.5C1370.87 187 1365.37 181.167 1358.37 177C1351.37 172.833 1343.29 170.75 1334.12 170.75C1325.12 170.75 1317.04 172.833 1309.87 177C1302.7 181.167 1297.12 187 1293.12 194.5C1289.12 202 1287.12 210.583 1287.12 220.25V223C1287.12 233 1289.29 241.833 1293.62 249.5C1298.12 257 1304.29 262.917 1312.12 267.25C1320.12 271.417 1329.2 273.5 1339.37 273.5C1347.37 273.5 1354.79 272.083 1361.62 269.25C1368.62 266.417 1374.62 262.083 1379.62 256.25L1389.62 267.75C1383.79 274.75 1376.45 280.083 1367.62 283.75C1358.95 287.417 1349.37 289.25 1338.87 289.25Z" fill="white"/>
<path d="M853.299 434L834.305 369.01H833.914C834.24 375.846 834.402 380.175 834.402 381.998V434H829.812V362.613H836.893L852.908 417.203C854.34 422.021 855.268 426.122 855.691 429.508H856.082C856.408 427.099 857.417 423.03 859.109 417.301L874.979 362.613H882.303V434H877.518V382.389C877.518 380.37 877.68 375.943 878.006 369.107H877.615L858.719 434H853.299ZM924.979 434L918.68 408.121H901.346L895.145 434H890.164L907.352 362.613H912.283L929.861 434H924.979ZM917.557 403.287L911.258 376.676C910.607 373.681 910.102 370.849 909.744 368.18C909.451 371.012 908.995 373.844 908.377 376.676L902.273 403.287H917.557ZM942.508 402.799V434H937.723V362.613H947.488C954.454 362.613 959.549 364.257 962.771 367.545C965.994 370.833 967.605 375.748 967.605 382.291C967.605 387.239 966.727 391.308 964.969 394.498C963.211 397.688 960.265 400.081 956.131 401.676L970.291 434H964.92L951.59 402.799H942.508ZM942.508 398.404H949.197C953.527 398.404 956.863 397.07 959.207 394.4C961.551 391.731 962.723 387.76 962.723 382.486C962.723 377.115 961.518 373.242 959.109 370.865C956.733 368.489 952.973 367.301 947.83 367.301H942.508V398.404ZM980.203 362.613H993.875C999.474 362.613 1003.77 364.046 1006.77 366.91C1009.79 369.775 1011.31 374.007 1011.31 379.605C1011.31 389.273 1007.77 394.807 1000.71 396.207V396.598C1004.78 397.444 1007.81 399.267 1009.79 402.066C1011.78 404.833 1012.77 408.707 1012.77 413.688C1012.77 420.068 1011.36 425.048 1008.52 428.629C1005.69 432.21 1001.72 434 996.609 434H980.203V362.613ZM984.988 394.4H993.973C998.432 394.4 1001.61 393.18 1003.49 390.738C1005.41 388.264 1006.38 384.521 1006.38 379.508C1006.38 375.471 1005.32 372.379 1003.2 370.23C1001.12 368.082 998.009 367.008 993.875 367.008H984.988V394.4ZM984.988 398.795V429.605H995.975C1003.85 429.605 1007.79 424.267 1007.79 413.59C1007.79 408.837 1006.64 405.191 1004.32 402.652C1002.01 400.081 998.774 398.795 994.607 398.795H984.988ZM1050.42 434H1024.54V362.613H1050.42V367.203H1029.32V394.303H1049.25V398.893H1029.32V429.41H1050.42V434ZM1063.02 434V362.613H1067.8V429.41H1087.92V434H1063.02ZM1097.78 434V362.613H1102.57V429.41H1122.68V434H1097.78ZM1159.55 434L1153.25 408.121H1135.92L1129.71 434H1124.73L1141.92 362.613H1146.85L1164.43 434H1159.55ZM1152.13 403.287L1145.83 376.676C1145.18 373.681 1144.67 370.849 1144.31 368.18C1144.02 371.012 1143.57 373.844 1142.95 376.676L1136.84 403.287H1152.13Z" fill="white"/>
<defs>
<filter id="filter0_d_1_29" x="29.4213" y="0" width="525.587" height="611.43" filterUnits="userSpaceOnUse" color-interpolation-filters="sRGB">
<feFlood flood-opacity="0" result="BackgroundImageFix"/>
<feColorMatrix in="SourceAlpha" type="matrix" values="0 0 0 0 0 0 0 0 0 0 0 0 0 0 0 0 0 0 127 0" result="hardAlpha"/>
<feOffset dy="15"/>
<feGaussianBlur stdDeviation="6"/>
<feComposite in2="hardAlpha" operator="out"/>
<feColorMatrix type="matrix" values="0 0 0 0 0 0 0 0 0 0 0 0 0 0 0 0 0 0 0.25 0"/>
<feBlend mode="normal" in2="BackgroundImageFix" result="effect1_dropShadow_1_29"/>
<feBlend mode="normal" in="SourceGraphic" in2="effect1_dropShadow_1_29" result="shape"/>
</filter>
<filter id="filter1_d_1_29" x="104.552" y="150.792" width="374.401" height="460.243" filterUnits="userSpaceOnUse" color-interpolation-filters="sRGB">
<feFlood flood-opacity="0" result="BackgroundImageFix"/>
<feColorMatrix in="SourceAlpha" type="matrix" values="0 0 0 0 0 0 0 0 0 0 0 0 0 0 0 0 0 0 127 0" result="hardAlpha"/>
<feOffset dy="15"/>
<feGaussianBlur stdDeviation="6"/>
<feComposite in2="hardAlpha" operator="out"/>
<feColorMatrix type="matrix" values="0 0 0 0 0 0 0 0 0 0 0 0 0 0 0 0 0 0 0.25 0"/>
<feBlend mode="normal" in2="BackgroundImageFix" result="effect1_dropShadow_1_29"/>
<feBlend mode="normal" in="SourceGraphic" in2="effect1_dropShadow_1_29" result="shape"/>
</filter>
<filter id="filter2_d_1_29" x="155.396" y="293.118" width="273.729" height="318.151" filterUnits="userSpaceOnUse" color-interpolation-filters="sRGB">
<feFlood flood-opacity="0" result="BackgroundImageFix"/>
<feColorMatrix in="SourceAlpha" type="matrix" values="0 0 0 0 0 0 0 0 0 0 0 0 0 0 0 0 0 0 127 0" result="hardAlpha"/>
<feOffset dy="15"/>
<feGaussianBlur stdDeviation="6"/>
<feComposite in2="hardAlpha" operator="out"/>
<feColorMatrix type="matrix" values="0 0 0 0 0 0 0 0 0 0 0 0 0 0 0 0 0 0 0.25 0"/>
<feBlend mode="normal" in2="BackgroundImageFix" result="effect1_dropShadow_1_29"/>
<feBlend mode="normal" in="SourceGraphic" in2="effect1_dropShadow_1_29" result="shape"/>
</filter>
</defs>
</svg>
