<svg width="533" height="325" viewBox="0 0 533 325" fill="none" xmlns="http://www.w3.org/2000/svg">
<g clip-path="url(#clip0_14_2)">
<path d="M71.5117 145.484C77.4264 145.484 82.4989 145.728 86.729 146.214C90.9591 146.701 94.5155 147.431 97.3979 148.404C100.318 149.34 102.639 150.519 104.361 151.942C106.083 153.364 107.412 154.993 108.348 156.827C109.284 158.624 109.882 160.646 110.145 162.892C110.444 165.138 110.594 167.571 110.594 170.191C110.594 172.812 110.35 175.283 109.864 177.604C109.415 179.887 108.591 181.983 107.393 183.893C106.195 185.802 104.567 187.505 102.508 189.002C100.449 190.5 97.8285 191.773 94.6465 192.821C91.4645 193.869 87.6274 194.655 83.1353 195.179C78.6805 195.741 73.4583 196.021 67.4688 196.021H53.0938C47.7031 196.021 42.9863 195.816 38.9434 195.404C34.9004 194.992 31.4189 194.374 28.499 193.551C25.5791 192.69 23.1646 191.623 21.2554 190.35C19.3462 189.04 17.8114 187.524 16.6509 185.802C15.5278 184.042 14.7417 182.058 14.2925 179.85C13.8433 177.604 13.6187 175.133 13.6187 172.438H24.3999C24.3999 175.807 24.8866 178.446 25.8599 180.355C26.8332 182.264 28.4429 183.705 30.689 184.679C32.9351 185.615 35.8737 186.214 39.5049 186.476C43.1735 186.7 47.7031 186.812 53.0938 186.812H67.4688C73.7578 186.812 78.98 186.513 83.1353 185.914C87.2905 185.315 90.6035 184.361 93.0742 183.05C95.5449 181.74 97.2856 180.037 98.2964 177.94C99.3071 175.807 99.8125 173.224 99.8125 170.191C99.8125 167.159 99.4569 164.632 98.7456 162.611C98.0718 160.589 96.7054 158.98 94.6465 157.782C92.625 156.584 89.7612 155.742 86.0552 155.255C82.3491 154.731 77.5013 154.469 71.5117 154.469H56.6875C50.099 154.469 44.4463 154.225 39.7295 153.739C35.0501 153.252 31.1195 152.56 27.9375 151.661C24.7555 150.725 22.21 149.583 20.3008 148.236C18.3916 146.851 16.9316 145.278 15.9209 143.519C14.9476 141.76 14.3112 139.813 14.0117 137.679C13.7122 135.508 13.5625 133.168 13.5625 130.66C13.5625 128.04 13.7871 125.606 14.2363 123.36C14.723 121.114 15.6027 119.093 16.8755 117.296C18.1483 115.462 19.889 113.833 22.0977 112.411C24.3063 110.988 27.1326 109.809 30.5767 108.873C34.0581 107.9 38.2321 107.17 43.0986 106.683C47.9652 106.196 53.6927 105.953 60.2812 105.953H71.0625C76.4531 105.953 81.1699 106.159 85.2129 106.571C89.2559 106.945 92.7373 107.563 95.6572 108.424C98.5771 109.247 100.992 110.296 102.901 111.568C104.847 112.804 106.382 114.301 107.505 116.061C108.666 117.783 109.471 119.748 109.92 121.957C110.369 124.165 110.594 126.617 110.594 129.312H99.8125C99.8125 125.943 99.3258 123.304 98.3525 121.395C97.3792 119.486 95.7695 118.063 93.5234 117.127C91.2773 116.154 88.32 115.555 84.6514 115.331C80.9827 115.069 76.4531 114.938 71.0625 114.938H60.2812C53.0938 114.938 47.179 115.2 42.5371 115.724C37.8952 116.21 34.2266 117.053 31.5312 118.25C28.8359 119.448 26.9642 121.058 25.916 123.08C24.8678 125.101 24.3438 127.628 24.3438 130.66C24.3438 132.532 24.4748 134.198 24.7368 135.658C24.9989 137.118 25.5229 138.409 26.3091 139.532C27.1326 140.618 28.2744 141.535 29.7344 142.284C31.1943 143.032 33.1222 143.65 35.5181 144.137C37.9139 144.623 40.8338 144.979 44.2778 145.204C47.7593 145.391 51.8958 145.484 56.6875 145.484H71.5117ZM128.562 129.312H139.344V194H128.562V129.312ZM139.344 118.531H128.562V107.75H139.344V118.531ZM195.047 195.235C187.859 195.235 181.757 194.749 176.741 193.775C171.725 192.765 167.645 191.043 164.5 188.609C161.355 186.176 159.072 182.919 157.649 178.839C156.227 174.758 155.516 169.63 155.516 163.453C155.516 156.378 156.227 150.538 157.649 145.934C159.072 141.292 161.355 137.604 164.5 134.872C167.645 132.139 171.725 130.23 176.741 129.144C181.757 128.058 187.859 127.516 195.047 127.516C200.175 127.516 204.611 127.89 208.355 128.639C212.136 129.387 215.355 130.473 218.013 131.896C220.708 133.318 222.88 135.04 224.527 137.062C226.211 139.083 227.522 141.217 228.458 143.463C229.431 145.672 230.086 148.273 230.423 151.268C230.797 154.263 230.984 157.426 230.984 160.758L230.086 164.352H166.297C166.297 169.293 166.784 173.355 167.757 176.537C168.73 179.681 170.34 181.983 172.586 183.443C174.832 184.903 177.789 185.839 181.458 186.251C185.127 186.625 189.656 186.812 195.047 186.812C199.988 186.812 204.069 186.681 207.288 186.419C210.545 186.12 213.128 185.577 215.037 184.791C216.946 184.005 218.275 182.919 219.024 181.534C219.81 180.112 220.203 178.277 220.203 176.031H230.984C230.984 179.513 230.367 182.489 229.131 184.959C227.933 187.393 225.931 189.377 223.123 190.912C220.315 192.409 216.609 193.495 212.005 194.168C207.438 194.88 201.785 195.235 195.047 195.235ZM195.047 136.5C191.453 136.5 188.234 136.575 185.389 136.725C182.581 136.874 180.11 137.211 177.977 137.735C175.88 138.222 174.083 138.952 172.586 139.925C171.089 140.861 169.872 141.984 168.936 143.294C168.038 144.567 167.364 146.383 166.915 148.741C166.503 151.062 166.297 153.87 166.297 157.164H220.203C220.203 152.784 219.735 149.359 218.799 146.888C217.863 144.38 216.385 142.321 214.363 140.711C212.342 139.102 209.74 137.997 206.558 137.398C203.376 136.799 199.539 136.5 195.047 136.5ZM277.703 194H263.328L329.812 116.734H245.359V107.75H342.391V118.531L277.703 194ZM394.5 195.235C387.312 195.235 381.211 194.749 376.194 193.775C371.178 192.765 367.098 191.043 363.953 188.609C360.809 186.176 358.525 182.919 357.103 178.839C355.68 174.758 354.969 169.63 354.969 163.453C354.969 156.378 355.68 150.538 357.103 145.934C358.525 141.292 360.809 137.604 363.953 134.872C367.098 132.139 371.178 130.23 376.194 129.144C381.211 128.058 387.312 127.516 394.5 127.516C399.629 127.516 404.065 127.89 407.808 128.639C411.589 129.387 414.808 130.473 417.466 131.896C420.162 133.318 422.333 135.04 423.98 137.062C425.665 139.083 426.975 141.217 427.911 143.463C428.884 145.672 429.539 148.273 429.876 151.268C430.25 154.263 430.438 157.426 430.438 160.758L429.539 164.352H365.75C365.75 169.293 366.237 173.355 367.21 176.537C368.183 179.681 369.793 181.983 372.039 183.443C374.285 184.903 377.243 185.839 380.911 186.251C384.58 186.625 389.109 186.812 394.5 186.812C399.441 186.812 403.522 186.681 406.741 186.419C409.998 186.12 412.581 185.577 414.49 184.791C416.399 184.005 417.728 182.919 418.477 181.534C419.263 180.112 419.656 178.277 419.656 176.031H430.438C430.438 179.513 429.82 182.489 428.584 184.959C427.387 187.393 425.384 189.377 422.576 190.912C419.769 192.409 416.062 193.495 411.458 194.168C406.891 194.88 401.238 195.235 394.5 195.235ZM394.5 136.5C390.906 136.5 387.687 136.575 384.842 136.725C382.034 136.874 379.563 137.211 377.43 137.735C375.333 138.222 373.536 138.952 372.039 139.925C370.542 140.861 369.325 141.984 368.389 143.294C367.491 144.567 366.817 146.383 366.368 148.741C365.956 151.062 365.75 153.87 365.75 157.164H419.656C419.656 152.784 419.188 149.359 418.252 146.888C417.317 144.38 415.838 142.321 413.816 140.711C411.795 139.102 409.193 137.997 406.011 137.398C402.829 136.799 398.992 136.5 394.5 136.5Z" fill="#0D6EFD"/>
<line x1="217" y1="116" x2="217" y2="66" stroke="#0D6EFD" stroke-width="10"/>
<line y1="-5" x2="295.249" y2="-5" transform="matrix(-0.985604 0.169069 -0.200386 -0.979717 513 16)" stroke="#0D6EFD" stroke-width="10"/>
<line x1="518" y1="16" x2="518" y2="309" stroke="#0D6EFD" stroke-width="10"/>
<line y1="-5" x2="294.85" y2="-5" transform="matrix(0.986943 0.161071 -0.191093 0.981572 222 261.508)" stroke="#0D6EFD" stroke-width="10"/>
<line x1="217" y1="261" x2="217" y2="211" stroke="#0D6EFD" stroke-width="10"/>
</g>
<defs>
<clipPath id="clip0_14_2">
<rect width="533" height="325" fill="white"/>
</clipPath>
</defs>
</svg>
